<svg width="297" height="100" xmlns="http://www.w3.org/2000/svg" xmlns:xlink="http://www.w3.org/1999/xlink" xml:space="preserve" overflow="hidden"><defs><clipPath id="clip0"><rect x="62" y="1371" width="297" height="100"/></clipPath></defs><g clip-path="url(#clip0)" transform="translate(-62 -1371)"><path d="M67.4999 1421C67.4999 1396.42 86.5278 1376.5 110 1376.5 133.472 1376.5 152.5 1396.42 152.5 1421 152.5 1445.58 133.472 1465.5 110 1465.5 86.5278 1465.5 67.4999 1445.58 67.4999 1421Z" stroke="#BFBFBF" stroke-width="11.4583" stroke-miterlimit="8" stroke-opacity="0.580392" fill="none" fill-rule="evenodd"/><rect x="91.0001" y="1403" width="5.99984" height="19.0002" fill="#2584FF"/><rect x="103" y="1403" width="8.99993" height="7.00024" fill="#2584FF"/><rect x="124" y="1403" width="5.99984" height="7.00024" fill="#FFC000"/><rect x="91.0001" y="1425" width="6.99987" height="14.0001" fill="#FFC000"/><rect x="113" y="1433" width="16.9998" height="4.99976" fill="#2584FF"/><rect x="101" y="1431" width="8.99993" height="6.99988" fill="#FFC000"/><rect x="117" y="1416" width="13.0001" height="13.0001" fill="#FF3400"/><rect x="103" y="1417" width="5.99984" height="7.00024" fill="#FF0066"/><text fill="#BFBFBF" fill-opacity="0.580392" font-family="Inter Black,Inter Black_MSFontService,sans-serif" font-weight="900" font-size="37" transform="matrix(1 0 0 1 163.711 1433)">Tikihost</text></g></svg>