<svg width="0" height="0" class="hidden">
  <symbol xmlns="http://www.w3.org/2000/svg" xmlns:xlink="http://www.w3.org/1999/xlink" xml:space="preserve" overflow="hidden" viewBox="0 0 96 96" id="website">
    <defs>
      <clipPath id="clip0">
        <rect x="572" y="293" width="96" height="96"></rect>
      </clipPath>
    </defs>
    <g clip-path="url(#clip0)" transform="translate(-572 -293)">
      <path d="M664 326 666 326 666 328 664 328Z"></path>
      <path d="M660 326 662 326 662 328 660 328Z"></path>
      <path d="M648 326 650 326 650 328 648 328Z"></path>
      <path d="M652 326 654 326 654 328 652 328Z"></path>
      <path d="M644 326 646 326 646 328 644 328Z"></path>
      <path d="M656 326 658 326 658 328 656 328Z"></path>
      <path d="M640 326 642 326 642 328 640 328Z"></path>
      <path d="M640 318 642 318 642 320 640 320Z"></path>
      <path d="M640 322 642 322 642 324 640 324Z"></path>
      <path d="M640 306 642 306 642 308 640 308Z"></path>
      <path d="M640 314 642 314 642 316 640 316Z"></path>
      <path d="M640 310 642 310 642 312 640 312Z"></path>
      <path d="M640 302 642 302 642 304 640 304Z"></path>
      <path d="M660 302 662 302 662 304 660 304Z"></path>
      <path d="M652 302 654 302 654 304 652 304Z"></path>
      <path d="M648 302 650 302 650 304 648 304Z"></path>
      <path d="M644 302 646 302 646 304 644 304Z"></path>
      <path d="M656 302 658 302 658 304 656 304Z"></path>
      <path d="M664 302 666 302 666 304 664 304Z"></path>
      <path d="M664 310 666 310 666 312 664 312Z"></path>
      <path d="M664 318 666 318 666 320 664 320Z"></path>
      <path d="M664 314 666 314 666 316 664 316Z"></path>
      <path d="M664 322 666 322 666 324 664 324Z"></path>
      <path d="M664 306 666 306 666 308 664 308Z"></path>
      <path d="M585.001 312.983 585.001 315 637 314.983 637 312.983 585.001 312.983Z"></path>
      <path d="M653.004 323 655.004 323 655.004 314.983 655.004 312.983 653.004 312.983 645 312.983 645 314.983 653.004 314.983 653.004 323Z"></path>
      <path d="M585.001 342 585.001 356.995 585.001 358.995 587.001 358.995 653.004 358.995 655.004 358.995 655.004 356.995 655.004 331 653.004 331 653.004 356.995 587.001 356.995 587.001 342 585.001 342Z"></path>
      <path d="M582 311.982C582 310.877 582.895 309.982 584 309.982L637 309.982 637 307.982 584 307.982C581.794 307.989 580.007 309.776 580 311.982L580 315 582 315Z"></path>
      <path d="M658 311.982 658 323 660 323 660 311.982C659.993 309.776 658.206 307.989 656 307.982L645 307.982 645 309.982 656 309.982C657.105 309.982 658 310.877 658 311.982Z"></path>
      <path d="M658 360C658 361.105 657.105 362 656 362L584 362C582.895 362 582 361.105 582 360L582 342 580 342 580 360C580.007 362.206 581.794 363.993 584 364L613 364 613 374 602 374 602 376 638 376 638 374 627 374 627 364 656 364C658.206 363.993 659.993 362.206 660 360L660 331 658 331ZM625 374 615 374 615 364 625 364Z"></path>
      <path d="M600 318 574 318 574 339 600 339ZM598 337 576 337 576 320 598 320Z"></path>
      <path d="M581 324 593 324 593 326 581 326Z"></path>
      <path d="M581 330 589 330 589 332 581 332Z"></path>
      <path d="M620 350C627.732 350 634 343.732 634 336 634 328.268 627.732 322 620 322 612.268 322 606 328.268 606 336 606.008 343.729 612.271 349.992 620 350ZM613.013 345.737C613.159 341.878 616.406 338.868 620.264 339.014 623.918 339.153 626.849 342.083 626.987 345.737 622.818 348.754 617.182 348.754 613.013 345.737ZM617 334C617 332.343 618.343 331 620 331 621.657 331 623 332.343 623 334 623 335.657 621.657 337 620 337 618.343 337 617 335.657 617 334ZM620 324C626.616 323.99 631.988 329.345 631.998 335.961 632.003 338.99 630.86 341.909 628.8 344.129 628.172 341.209 626.141 338.789 623.375 337.663 625.411 335.798 625.55 332.635 623.685 330.599 621.82 328.562 618.657 328.423 616.621 330.289 614.585 332.154 614.446 335.316 616.311 337.353 616.41 337.461 616.513 337.564 616.621 337.663 613.856 338.79 611.827 341.21 611.2 344.129 606.699 339.279 606.983 331.699 611.832 327.198 614.053 325.138 616.971 323.995 620 324Z"></path>
      <path d="M647.748 344.608C647.748 344.524 647.664 344.44 647.496 344.356L637.5 341 637.416 341C637.236 341.012 637.092 341.156 637.08 341.336L637.08 341.42 640.357 351.5C640.437 351.657 640.6 351.755 640.777 351.752 640.861 351.752 640.945 351.668 641.029 351.5L642.284 348.07C642.287 348.066 642.294 348.065 642.298 348.068 642.299 348.069 642.299 348.069 642.3 348.07L646.236 352 648 350.236 644.064 346.3C644.059 346.296 644.059 346.289 644.062 346.284 644.063 346.284 644.063 346.284 644.064 346.283L647.5 345.028C647.656 344.947 647.752 344.784 647.748 344.608Z"></path>
    </g>
  </symbol>
  <symbol xmlns="http://www.w3.org/2000/svg" xmlns:xlink="http://www.w3.org/1999/xlink" xml:space="preserve" overflow="hidden" viewBox="0 0 96 96" id="chart">
    <defs>
      <clipPath id="clip0">
        <rect x="141" y="124" width="96" height="96"></rect>
      </clipPath>
    </defs>
    <g clip-path="url(#clip0)" transform="translate(-141 -124)">
      <path d="M222.97 205 157 205 157 139 155 139 155 207 222.97 207 222.97 205Z"></path>
      <path d="M223 139 207 139 207 199 223 199ZM221 197 209 197 209 141 221 141Z"></path>
      <path d="M185 199 201 199 201 161 185 161ZM187 163 199 163 199 197 187 197Z"></path>
      <path d="M163 199 179 199 179 179 163 179ZM165 181 177 181 177 197 165 197Z"></path>
      <path d="M163.707 171.707 192.986 142.428C192.99 142.424 192.996 142.424 193 142.428 193.002 142.43 193.003 142.432 193.003 142.435L193.003 152 195.003 152 195.003 139 182.03 139 182.03 141 191.562 141C191.568 141 191.572 141.005 191.572 141.01 191.572 141.013 191.571 141.015 191.569 141.017L162.293 170.293Z"></path>
    </g>
  </symbol>
  <symbol xmlns="http://www.w3.org/2000/svg" xmlns:xlink="http://www.w3.org/1999/xlink" xml:space="preserve" overflow="hidden" viewBox="0 0 96 96" id="easy">
    <defs>
      <clipPath id="clip0">
        <rect x="592" y="312" width="96" height="96"></rect>
      </clipPath>
    </defs>
    <g clip-path="url(#clip0)" transform="translate(-592 -312)">
      <path d="M669.118 326 616.292 326 606 336.292 606 389.118C606.003 391.813 608.187 393.997 610.882 394L669.118 394C671.813 393.997 673.997 391.813 674 389.118L674 330.882C673.997 328.187 671.813 326.003 669.118 326ZM623 328 657 328 657 351C657 351.552 656.552 352 656 352L624 352C623.448 352 623 351.552 623 351ZM672 389.118C671.998 390.709 670.709 391.998 669.118 392L610.882 392C609.291 391.998 608.002 390.709 608 389.118L608 337.118 617.12 328 621 328 621 351C621 352.657 622.343 354 624 354L656 354C657.657 354 659 352.657 659 351L659 328 669.118 328C670.709 328.002 671.998 329.291 672 330.882Z"></path>
      <path d="M640 360C633.925 360 629 364.925 629 371 629 377.075 633.925 382 640 382 646.075 382 651 377.075 651 371 650.993 364.928 646.072 360.007 640 360ZM640 380C635.029 380 631 375.971 631 371 631 366.029 635.029 362 640 362 644.971 362 649 366.029 649 371 648.994 375.968 644.968 379.994 640 380Z"></path>
      <path d="M637 368 643 368 643 374 637 374Z"></path>
      <path d="M636 331 628 331 628 349 636 349ZM634 347 630 347 630 333 634 333Z"></path>
    </g>
  </symbol>
  <symbol xmlns="http://www.w3.org/2000/svg" xmlns:xlink="http://www.w3.org/1999/xlink" xml:space="preserve" overflow="hidden" viewBox="0 0 96 96" id="picture">
    <defs>
      <clipPath id="clip0">
        <rect x="353" y="124" width="96" height="96"></rect>
      </clipPath>
    </defs>
    <g clip-path="url(#clip0)" transform="translate(-353 -124)">
      <path d="M371 192 430 192C430.6 192 431 191.6 431 191 431 190.8 431 190.7 430.9 190.5L416.9 166.5C416.7 166.2 416.4 166 416 166L416 166C415.6 166 415.3 166.2 415.1 166.5L408.8 178.2 393.8 155.4C393.7 155.2 393.3 155 393 155L393 155C392.7 155 392.3 155.2 392.2 155.5L380.3 174.3C380.2 174.4 380.1 174.6 380 174.7L370.1 190.5C369.8 191 369.9 191.6 370.4 191.9 370.6 191.9 370.8 192 371 192ZM416 169.1 428.3 190 416.5 190 410 180.1 416 169.1C416 169.1 416 169.1 416 169.1 416 169.1 416 169.1 416 169.1ZM403.1 173.2 397 169.6C396.6 169.4 396.1 169.4 395.8 169.8L393 172.6 390.7 170.3C390.4 170 390 169.9 389.6 170.1L383.7 172.7 393 157.9C393 157.9 393 157.9 393 157.9L403.1 173.2ZM381.8 175.8 389.8 172.2 392.3 174.7C392.7 175.1 393.3 175.1 393.7 174.7L396.7 171.7 405.5 176.8C405.5 176.8 405.5 176.8 405.5 176.8L414.1 190 372.8 190 381.8 175.8Z"></path>
      <path d="M380 159C381.7 159 383 157.7 383 156 383 154.3 381.7 153 380 153 378.3 153 377 154.3 377 156 377 157.7 378.3 159 380 159ZM380 155C380.6 155 381 155.4 381 156 381 156.6 380.6 157 380 157 379.4 157 379 156.6 379 156 379 155.4 379.4 155 380 155Z"></path>
      <path d="M439 144 363 144 363 202 439 202 439 144ZM437 200 365 200 365 146 437 146 437 200Z"></path>
    </g>
  </symbol>
  <symbol xmlns="http://www.w3.org/2000/svg" xmlns:xlink="http://www.w3.org/1999/xlink" xml:space="preserve" overflow="hidden" viewBox="0 0 96 96" id="support">
    <defs>
      <clipPath id="clip0">
        <rect x="680" y="95" width="96" height="96"></rect>
      </clipPath>
    </defs>
    <g clip-path="url(#clip0)" transform="translate(-680 -95)">
      <path d="M728 145C729.091 144.999 730.179 144.891 731.248 144.675 730.634 144.182 730.122 143.574 729.742 142.885 721.767 143.874 714.501 138.212 713.511 130.237 712.522 122.263 718.185 114.996 726.159 114.006 734.134 113.017 741.4 118.68 742.39 126.654 742.681 129.003 742.395 131.387 741.557 133.6L743.908 132.816C746.286 124.025 741.087 114.97 732.296 112.592 723.505 110.214 714.45 115.413 712.072 124.204 709.694 132.995 714.893 142.05 723.684 144.428 725.091 144.809 726.542 145.001 728 145Z"></path>
      <path d="M756.516 157.537C751.929 154.005 746.674 151.439 741.068 149.993 736.833 148.693 732.43 148.026 728 148.015 723.581 148.089 719.191 148.753 714.947 149.989 709.41 151.615 704.188 154.164 699.5 157.529 697.352 159.215 696.076 161.778 696.026 164.508L696.026 180 698.026 180 698.026 164.508C698.07 162.4 699.056 160.422 700.713 159.119 705.198 155.905 710.194 153.471 715.489 151.919 719.556 150.732 723.764 150.091 728 150.015 732.238 150.029 736.45 150.669 740.5 151.915 745.852 153.288 750.87 155.73 755.252 159.094 756.927 160.398 757.927 162.387 757.974 164.51L757.974 180 759.974 180 759.974 164.508C759.927 161.783 758.657 159.223 756.516 157.537Z"></path>
      <path d="M713.714 115C721.44 107.113 734.097 106.982 741.984 114.708 744.282 116.959 746.002 119.73 747 122.788L747 134.946 737.355 138.161C736.334 136.862 734.454 136.637 733.155 137.658 731.856 138.678 731.631 140.559 732.652 141.857 733.672 143.156 735.553 143.382 736.852 142.361 737.56 141.804 737.98 140.957 737.994 140.056L750.231 135.977C751.788 135.857 752.993 134.562 753 133L753 125C753 123.343 751.657 122 750 122L748.833 122C744.98 110.489 732.525 104.281 721.014 108.134 717.713 109.239 714.721 111.113 712.286 113.6 711.894 113.989 711.891 114.622 712.28 115.014 712.669 115.406 713.302 115.409 713.694 115.02 713.701 115.014 713.707 115.007 713.714 115ZM751 125 751 133C751 133.552 750.552 134 750 134L749 134 749 124 750 124C750.552 124 751 124.448 751 125Z"></path>
    </g>
  </symbol>
</svg>