<svg width="0" height="0" class="hidden">
  <symbol version="1.1" xmlns="http://www.w3.org/2000/svg" viewBox="0 0 700 700" id="search">
    <path d="m430.78 385.54 81.848 81.828c6.8242 6.8281 17.918 6.8281 24.742 0 6.8281-6.8242 6.8281-17.918 0-24.742l-81.828-81.848c21.559-26.953 34.457-61.129 34.457-98.281 0-86.922-70.578-157.5-157.5-157.5s-157.5 70.578-157.5 157.5 70.578 157.5 157.5 157.5c37.152 0 71.328-12.898 98.281-34.457zm-98.281-245.54c67.602 0 122.5 54.898 122.5 122.5s-54.898 122.5-122.5 122.5-122.5-54.898-122.5-122.5 54.898-122.5 122.5-122.5z" fill-rule="evenodd"></path>
  </symbol>
</svg>